<?xml version="1.0" encoding="utf-8"?>
<!-- Generator: Adobe Illustrator 17.0.0, SVG Export Plug-In . SVG Version: 6.00 Build 0)  -->
<!DOCTYPE svg PUBLIC "-//W3C//DTD SVG 1.1//EN" "http://www.w3.org/Graphics/SVG/1.1/DTD/svg11.dtd">
<svg version="1.1" id="Layer_1" xmlns="http://www.w3.org/2000/svg" xmlns:xlink="http://www.w3.org/1999/xlink" x="0px" y="0px"
	 width="64.313px" height="84.552px" viewBox="0 0 64.313 84.552" enable-background="new 0 0 64.313 84.552" xml:space="preserve">
<g>
	<path fill="#353535" d="M32.218,7.285c6.38-0.001,12.761-0.005,19.141,0.001c2.964,0.003,4.234,1.299,4.236,4.297
		c0.003,3.774,0.007,7.548,0,11.323c-0.005,2.745-1.392,4.125-4.159,4.126c-12.85,0.005-25.701,0.004-38.551,0
		c-2.779-0.001-4.157-1.36-4.166-4.116c-0.013-3.864-0.011-7.728,0.001-11.592c0.008-2.69,1.362-4.03,4.087-4.034
		C19.277,7.279,25.748,7.286,32.218,7.285z M32.124,24.977c6.421,0,12.842,0.003,19.262-0.002c1.749-0.001,2.128-0.373,2.135-2.145
		c0.014-3.772,0.011-7.543,0.001-11.315c-0.005-1.832-0.398-2.222-2.207-2.223c-12.797-0.003-25.593-0.004-38.39-0.001
		c-1.719,0-2.129,0.409-2.134,2.16c-0.012,3.772-0.011,7.543-0.002,11.315c0.004,1.858,0.36,2.208,2.207,2.209
		C19.372,24.979,25.748,24.977,32.124,24.977z"/>
	<path fill="#353535" d="M51.169,51.94c-0.942,0-1.885-0.008-2.827,0.002c-1.037,0.011-1.614-0.466-1.62-1.525
		c-0.012-1.929-0.007-3.858-0.005-5.787c0.001-0.98,0.507-1.53,1.473-1.546c1.973-0.033,3.947-0.038,5.919-0.003
		c0.949,0.017,1.492,0.549,1.495,1.536c0.005,1.929,0.004,3.859-0.002,5.788c-0.003,1.06-0.569,1.544-1.606,1.537
		C53.054,51.935,52.111,51.94,51.169,51.94z M54.305,47.493c-0.026-3.137,0.43-3.119-3.108-3.141
		c-3.838-0.024-3.149,0.177-3.165,3.205c-0.017,3.286-0.429,3.107,3.094,3.109C54.729,50.668,54.281,50.858,54.305,47.493z"/>
	<path fill="#353535" d="M21.389,47.54c0-0.988-0.005-1.975,0.001-2.963c0.007-0.99,0.531-1.497,1.503-1.508
		c1.885-0.022,3.77-0.031,5.654-0.018c1.129,0.008,1.746,0.552,1.732,1.743c-0.022,1.84-0.021,3.68-0.015,5.521
		c0.004,1.121-0.541,1.639-1.656,1.63c-1.885-0.015-3.771-0.008-5.656-0.007c-1.049,0-1.575-0.52-1.575-1.57
		c0-0.943,0-1.885,0-2.828C21.382,47.54,21.386,47.54,21.389,47.54z M25.809,50.665c3.634,0.01,3.12,0.169,3.151-3.195
		c0-0.045,0-0.09,0-0.134c0.005-2.958,0.306-2.979-2.997-2.985c-3.77-0.007-3.278-0.023-3.275,3.229
		C22.691,50.805,22.221,50.681,25.809,50.665z"/>
	<path fill="#353535" d="M8.709,47.498c0-0.943,0.019-1.886-0.005-2.828c-0.025-0.995,0.464-1.562,1.423-1.584
		c2.019-0.046,4.041-0.055,6.059,0.002c0.95,0.027,1.431,0.637,1.424,1.61c-0.013,1.885-0.014,3.771-0.019,5.656
		c-0.003,1.04-0.503,1.587-1.562,1.586c-1.93-0.001-3.861,0.001-5.791-0.003c-1.067-0.002-1.539-0.576-1.53-1.611
		C8.715,49.383,8.709,48.441,8.709,47.498z M16.291,47.523c0.055-3.871-0.068-3.111-3.065-3.154
		c-3.467-0.05-3.231-0.313-3.215,3.144c0.015,3.379-0.413,3.151,3.203,3.153C16.723,50.668,16.266,50.83,16.291,47.523z"/>
	<path fill="#353535" d="M55.606,60.254c0.001,0.897-0.001,1.794,0.001,2.692c0.003,1.095-0.504,1.666-1.634,1.658
		c-1.884-0.013-3.768-0.005-5.652-0.003c-1.127,0.001-1.615-0.585-1.606-1.684c0.015-1.839,0.015-3.678,0-5.518
		c-0.009-1.118,0.545-1.668,1.635-1.675c1.884-0.013,3.768-0.014,5.652,0.004c1.1,0.011,1.629,0.595,1.608,1.701
		C55.591,58.37,55.605,59.312,55.606,60.254z M54.306,60.187c-0.006-3.443,0.324-3.167-3.197-3.168
		c-3.418,0-3.094-0.252-3.081,3.137c0.013,3.372-0.474,3.154,3.187,3.155C54.696,63.313,54.287,63.533,54.306,60.187z"/>
	<path fill="#353535" d="M42.93,47.533c0,0.988,0.018,1.977-0.005,2.964c-0.022,0.91-0.508,1.424-1.429,1.432
		c-1.976,0.018-3.953,0.01-5.929,0.009c-0.987-0.001-1.503-0.502-1.511-1.488c-0.016-1.931-0.01-3.862-0.027-5.793
		c-0.01-1.083,0.596-1.564,1.589-1.58c1.93-0.032,3.862-0.038,5.792-0.002c1.01,0.019,1.563,0.562,1.538,1.629
		c-0.022,0.943-0.005,1.886-0.005,2.829C42.939,47.533,42.935,47.533,42.93,47.533z M38.472,44.361
		c-3.483-0.018-3.128-0.182-3.116,3.109c0.012,3.368-0.479,3.191,3.157,3.199c3.585,0.008,3.082,0.131,3.123-3.099
		C41.685,43.668,41.574,44.434,38.472,44.361z"/>
	<path fill="#353535" d="M17.592,72.911c0,0.942,0.007,1.885-0.002,2.827c-0.009,0.978-0.509,1.511-1.49,1.518
		c-1.974,0.015-3.949,0.017-5.923-0.004c-0.988-0.01-1.463-0.574-1.466-1.543c-0.005-1.93-0.01-3.859,0.002-5.789
		c0.007-1.058,0.601-1.536,1.624-1.537c1.885-0.002,3.77-0.01,5.654,0.002c1.108,0.007,1.626,0.592,1.604,1.697
		C17.576,71.026,17.591,71.969,17.592,72.911z M16.291,72.803c-0.019-3.309,0.401-3.13-3.099-3.123
		c-3.536,0.007-3.182-0.267-3.18,3.178c0.001,3.406-0.346,3.103,3.099,3.103C16.692,75.961,16.268,76.268,16.291,72.803z"/>
	<path fill="#353535" d="M25.709,64.598c-0.942-0.002-1.885,0.004-2.827-0.003c-0.992-0.007-1.491-0.538-1.498-1.507
		c-0.015-1.929-0.002-3.859-0.006-5.789c-0.002-0.981,0.497-1.543,1.458-1.562c1.974-0.039,3.949-0.032,5.923-0.005
		c0.96,0.013,1.497,0.543,1.503,1.523c0.011,1.929,0.008,3.859,0.001,5.789c-0.004,1.047-0.542,1.563-1.591,1.557
		C27.683,64.595,26.696,64.6,25.709,64.598z M28.96,60.211c-0.02-3.446,0.394-3.189-3.162-3.193
		c-3.45-0.004-3.124-0.217-3.113,3.112c0.011,3.44-0.428,3.183,3.162,3.18C29.342,63.308,28.944,63.559,28.96,60.211z"/>
	<path fill="#353535" d="M13.158,64.6c-0.942-0.001-1.884-0.01-2.826,0.002c-1.042,0.013-1.611-0.477-1.618-1.529
		c-0.014-1.929-0.005-3.858-0.003-5.787c0.001-1.067,0.596-1.551,1.605-1.56c1.884-0.016,3.768-0.014,5.653,0
		c1.094,0.008,1.639,0.562,1.629,1.679c-0.016,1.839-0.017,3.679,0,5.518c0.011,1.199-0.585,1.709-1.747,1.682
		C14.953,64.584,14.056,64.601,13.158,64.6z M16.291,60.224c-0.011-3.483,0.353-3.201-3.153-3.205
		c-3.407-0.004-3.144-0.262-3.127,3.1c0.017,3.434-0.432,3.196,3.154,3.192C16.72,63.308,16.261,63.519,16.291,60.224z"/>
	<path fill="#353535" d="M55.605,72.905c-0.001,0.897-0.007,1.795,0.001,2.692c0.01,1.101-0.509,1.669-1.629,1.668
		c-1.885-0.003-3.769,0.002-5.654,0.001c-1.121-0.001-1.62-0.581-1.61-1.684c0.016-1.84,0.015-3.68,0.001-5.519
		c-0.009-1.111,0.524-1.673,1.627-1.678c1.885-0.008,3.769-0.006,5.654,0.001c1.117,0.004,1.625,0.598,1.613,1.693
		C55.598,71.02,55.606,71.963,55.605,72.905z M51.07,75.963c3.611-0.017,3.226,0.367,3.233-3.244
		c0.007-3.243,0.313-3.043-3.052-3.038c-3.67,0.006-3.221-0.266-3.223,3.26C48.026,76.162,47.609,75.972,51.07,75.963z"/>
	<path fill="#353535" d="M38.394,77.261c-0.942,0.001-1.885,0.01-2.827-0.001c-0.977-0.012-1.505-0.515-1.511-1.497
		c-0.012-1.975-0.015-3.949,0.002-5.924c0.008-0.922,0.54-1.426,1.434-1.441c1.974-0.033,3.949-0.028,5.924-0.007
		c0.959,0.01,1.506,0.516,1.511,1.506c0.009,1.975,0.02,3.949-0.004,5.924c-0.011,0.906-0.516,1.414-1.432,1.433
		C40.458,77.276,39.426,77.259,38.394,77.261z M38.445,69.683c-3.447-0.007-3.096-0.241-3.092,3.124
		c0.005,3.476-0.382,3.151,3.184,3.154c3.426,0.004,3.093,0.305,3.095-3.11C41.633,69.366,41.954,69.689,38.445,69.683z"/>
	<path fill="#353535" d="M25.751,77.264c-0.942-0.002-1.885,0-2.827-0.002c-0.978-0.002-1.525-0.494-1.536-1.472
		c-0.022-1.974-0.018-3.949-0.001-5.923c0.008-0.994,0.586-1.468,1.541-1.477c1.929-0.016,3.859-0.022,5.788,0
		c1.035,0.012,1.552,0.578,1.55,1.618c-0.003,1.885,0,3.769-0.001,5.654c0,1.125-0.587,1.623-1.687,1.606
		C27.636,77.253,26.693,77.265,25.751,77.264z M25.926,69.683c-3.638,0.007-3.236-0.312-3.241,3.242
		c-0.004,3.311-0.325,3.041,3.03,3.036c3.665-0.006,3.228,0.339,3.243-3.227C28.973,69.454,29.25,69.672,25.926,69.683z"/>
	<path fill="#353535" d="M42.934,60.04c-0.001,0.987,0.002,1.974-0.002,2.961c-0.003,1.029-0.487,1.596-1.553,1.597
		c-1.929,0-3.859,0.003-5.788,0.001c-1.067-0.001-1.542-0.574-1.542-1.605c0.001-1.885,0-3.769-0.001-5.654
		c0-1.126,0.6-1.622,1.687-1.621c1.84,0.003,3.679-0.002,5.519,0.002c1.167,0.003,1.723,0.582,1.686,1.761
		C42.913,58.334,42.935,59.187,42.934,60.04z M41.633,60.157c-0.008-3.349,0.336-3.145-3.092-3.138
		c-3.553,0.007-3.188-0.272-3.187,3.168c0.001,3.369-0.39,3.121,3.085,3.123C42.013,63.311,41.617,63.597,41.633,60.157z"/>
	<path fill="#353535" d="M13.1,39.272c-0.987,0-1.974,0.013-2.961-0.004c-0.926-0.015-1.412-0.529-1.422-1.434
		c-0.021-1.974-0.015-3.948-0.003-5.922c0.006-0.996,0.583-1.482,1.53-1.495c1.929-0.026,3.858-0.026,5.787,0
		c1.018,0.013,1.568,0.545,1.564,1.603c-0.008,1.884-0.006,3.768,0.001,5.652c0.004,1.127-0.562,1.633-1.669,1.613
		c-0.942-0.017-1.884-0.004-2.826-0.004C13.1,39.28,13.1,39.276,13.1,39.272z M16.291,34.87c-0.025-3.244,0.419-3.191-2.929-3.178
		c-3.754,0.014-3.351-0.28-3.348,3.295c0.002,3.147-0.418,3.043,3.06,3.038C16.715,38.018,16.267,38.218,16.291,34.87z"/>
	<path fill="#353535" d="M38.424,39.279c-0.942,0-1.884,0.001-2.825-0.001c-0.97-0.002-1.532-0.462-1.541-1.458
		c-0.016-1.973-0.015-3.947-0.002-5.92c0.006-1.003,0.604-1.467,1.544-1.48c1.928-0.025,3.857-0.026,5.785-0.002
		c1.03,0.013,1.553,0.574,1.55,1.617c-0.005,1.884-0.002,3.767-0.001,5.651c0.001,1.127-0.58,1.622-1.685,1.597
		C40.307,39.263,39.365,39.28,38.424,39.279z M41.633,34.915c-0.015-3.42,0.381-3.224-3.155-3.223
		c-3.447,0.001-3.136-0.202-3.124,3.118c0.012,3.384-0.448,3.211,3.154,3.215C42.089,38.029,41.604,38.146,41.633,34.915z"/>
	<path fill="#353535" d="M46.719,34.841c0.002-0.942,0.009-1.884,0-2.826c-0.01-1.061,0.553-1.585,1.568-1.598
		c1.928-0.025,3.858-0.029,5.786,0.002c1.026,0.017,1.542,0.588,1.536,1.633c-0.011,1.884-0.001,3.768-0.006,5.652
		c-0.003,1.039-0.518,1.576-1.572,1.575c-1.884-0.001-3.768-0.012-5.652,0.009c-1.211,0.013-1.696-0.6-1.667-1.756
		C46.735,36.635,46.717,35.738,46.719,34.841z M48.022,34.839c0.032,3.359-0.462,3.18,3.184,3.185
		c3.534,0.005,3.086,0.133,3.095-3.138c0.009-3.422,0.343-3.193-3.184-3.191C47.677,31.695,48.03,31.493,48.022,34.839z"/>
	<path fill="#353535" d="M30.264,34.91c-0.001,0.942,0.003,1.884-0.002,2.826c-0.005,0.968-0.47,1.53-1.465,1.537
		c-1.974,0.015-3.947,0.008-5.921,0.004c-0.996-0.002-1.486-0.538-1.493-1.508c-0.013-1.929-0.005-3.858-0.004-5.786
		c0.001-1.064,0.587-1.558,1.599-1.567c1.884-0.017,3.768-0.015,5.652-0.002c1.088,0.007,1.656,0.55,1.638,1.671
		C30.253,33.026,30.265,33.968,30.264,34.91z M22.682,34.875c0.037,3.165-0.513,3.167,2.949,3.151
		c3.814-0.017,3.309,0.244,3.325-3.311c0.015-3.2,0.309-3.025-3.082-3.022C22.314,31.695,22.691,31.473,22.682,34.875z"/>
</g>
<g>
	<path fill="#353535" d="M59.584,84.552H4.729C2.121,84.552,0,82.43,0,79.823V4.729C0,2.121,2.121,0,4.729,0h54.855
		c2.608,0,4.729,2.121,4.729,4.729v75.094C64.313,82.43,62.191,84.552,59.584,84.552z M4.729,1.892
		c-1.565,0-2.837,1.273-2.837,2.837v75.094c0,1.565,1.273,2.837,2.837,2.837h54.855c1.565,0,2.837-1.273,2.837-2.837V4.729
		c0-1.565-1.273-2.837-2.837-2.837C59.584,1.892,4.729,1.892,4.729,1.892z"/>
</g>
</svg>
