<?xml version="1.0" encoding="utf-8"?>
<!-- Generator: Adobe Illustrator 19.0.0, SVG Export Plug-In . SVG Version: 6.00 Build 0)  -->
<svg version="1.1" id="Layer_1" xmlns="http://www.w3.org/2000/svg" xmlns:xlink="http://www.w3.org/1999/xlink" x="0px" y="0px"
	 viewBox="-78 329 454 136" style="enable-background:new -78 329 454 136;" xml:space="preserve">
<style type="text/css">
	.st0{fill:#FFFFFF;}
</style>
<g>
	<path class="st0" d="M42.1,452.2L80.4,342h16.4l38.3,110.3h-17.7l-9.1-27.4H69l-9.2,27.4H42.1z M74.1,408.4h29l-14.5-44.6
		L74.1,408.4z"/>
	<path class="st0" d="M168.3,422.8l14.2-9c3.9,15.5,11.3,23.3,22.2,23.3c4.9,0,9-1.6,12.1-4.7c3.2-3.1,4.7-7.1,4.7-11.9
		c0-2.9-0.9-5.5-2.6-7.8c-1.7-2.3-4-4.2-6.7-5.8c-2.8-1.6-5.8-3.2-9.2-4.7c-3.3-1.5-6.7-3.2-10-5.1s-6.4-3.9-9.2-6.2
		c-2.8-2.3-5-5.2-6.7-8.8c-1.7-3.6-2.6-7.7-2.6-12.3c0-8.2,2.8-15.1,8.3-20.6c5.6-5.6,12.4-8.4,20.5-8.4c13.4,0,23.6,6.2,30.4,18.6
		l-14.1,9.3c-4.3-8.1-9.8-12.2-16.4-12.2c-3.4,0-6.2,1.1-8.3,3.4s-3.2,5.1-3.2,8.5c0,6.8,5.6,12.8,16.7,18c2.5,1.1,4.5,2,5.9,2.7
		s3.4,1.7,5.9,3s4.4,2.6,5.9,3.7c1.5,1.2,3.2,2.6,5,4.4c1.9,1.8,3.3,3.6,4.3,5.4s1.9,4,2.5,6.4c0.7,2.5,1,5.1,1,7.8
		c0,10-3.3,18.1-9.8,24.3c-6.5,6.2-14.7,9.2-24.8,9.2c-9.3,0-17.2-2.8-23.7-8.4C174.6,439.4,170.3,432,168.3,422.8z"/>
	<path class="st0" d="M273,452.2L311.3,342h16.4L366,452.2h-17.7l-9.1-27.4h-39.4l-9.2,27.4H273z M305,408.4h29l-14.5-44.6
		L305,408.4z"/>
	<g>
		<rect x="-68.1" y="435.3" class="st0" width="17.3" height="16.9"/>
	</g>
	<polygon class="st0" points="13.3,452.2 -34.7,391.2 9.8,341.8 -11.4,341.8 -50.1,383.5 -50.1,383.5 -50.1,383.5 -50.7,384.2 
		-50.7,384.2 -57.1,391.1 -47.2,402.8 -8.8,452.2 	"/>
</g>
</svg>
