<?xml version="1.0" encoding="utf-8"?>
<!-- Generator: Adobe Illustrator 17.0.0, SVG Export Plug-In . SVG Version: 6.00 Build 0)  -->
<!DOCTYPE svg PUBLIC "-//W3C//DTD SVG 1.1//EN" "http://www.w3.org/Graphics/SVG/1.1/DTD/svg11.dtd">
<svg version="1.1" id="Layer_1" xmlns="http://www.w3.org/2000/svg" xmlns:xlink="http://www.w3.org/1999/xlink" x="0px" y="0px"
	 width="191.233px" height="49.559px" viewBox="8.767 35.22 191.233 49.559" enable-background="new 8.767 35.22 191.233 49.559"
	 xml:space="preserve">
<g>
	<path d="M57.313,84.295l16.872-48.546h7.225l16.872,48.59h-7.797l-4.009-12.07H69.163l-4.053,12.07h-7.797V84.295z M71.41,65
		h12.775l-6.388-19.648L71.41,65z"/>
	<path d="M112.907,71.344l6.256-3.965c1.718,6.828,4.978,10.264,9.78,10.264c2.159,0,3.965-0.705,5.33-2.07
		c1.41-1.366,2.07-3.128,2.07-5.242c0-1.278-0.396-2.423-1.145-3.436c-0.749-1.013-1.762-1.85-2.952-2.555
		c-1.233-0.705-2.555-1.41-4.053-2.07c-1.454-0.661-2.952-1.41-4.405-2.247c-1.454-0.837-2.819-1.718-4.053-2.731
		c-1.233-1.013-2.203-2.291-2.952-3.877c-0.749-1.586-1.145-3.392-1.145-5.418c0-3.612,1.233-6.652,3.656-9.075
		c2.467-2.467,5.463-3.7,9.031-3.7c5.903,0,10.396,2.731,13.392,8.194l-6.211,4.097c-1.894-3.568-4.317-5.374-7.225-5.374
		c-1.498,0-2.731,0.485-3.656,1.498s-1.41,2.247-1.41,3.744c0,2.996,2.467,5.639,7.357,7.93c1.101,0.485,1.982,0.881,2.599,1.189
		c0.617,0.308,1.498,0.749,2.599,1.322s1.938,1.145,2.599,1.63c0.661,0.529,1.41,1.145,2.203,1.938
		c0.837,0.793,1.454,1.586,1.894,2.379c0.441,0.793,0.837,1.762,1.101,2.819c0.308,1.101,0.441,2.247,0.441,3.436
		c0,4.405-1.454,7.974-4.317,10.705c-2.863,2.731-6.476,4.053-10.925,4.053c-4.097,0-7.577-1.233-10.441-3.7
		C115.683,78.656,113.789,75.396,112.907,71.344z"/>
	<path d="M159.031,84.295l16.872-48.546h7.225L200,84.295h-7.797l-4.009-12.07h-17.357l-4.053,12.07H159.031z M173.128,65h12.775
		l-6.388-19.648L173.128,65z"/>
	<g>
		<rect x="8.767" y="76.85" width="7.621" height="7.445"/>
	</g>
	<polygon points="44.626,84.295 23.48,57.423 43.084,35.661 33.744,35.661 16.696,54.031 16.696,54.031 16.696,54.031 
		16.432,54.339 16.432,54.339 13.612,57.379 17.974,62.533 34.89,84.295 	"/>
</g>
</svg>
